<svg xmlns:xlink="http://www.w3.org/1999/xlink" width="205.471" xmlns="http://www.w3.org/2000/svg" height="245.49" id="screenshot-6f61dc49-c359-80cf-8002-70255d3957d2" viewBox="-0 0 205.471 245.49" style="-webkit-print-color-adjust: exact;" fill="none" version="1.1"><g id="shape-6f61dc49-c359-80cf-8002-70255d3957d2" width="205.47133mm" height="245.4902mm" version="1.1" rx="0" ry="0" style="fill: rgb(0, 0, 0);"><g id="shape-6f61dc49-c359-80cf-8002-70255d3a9e11" rx="0" ry="0" style="fill: rgb(0, 0, 0);"><g id="shape-6f61dc49-c359-80cf-8002-70255d3aca5b" rx="0" ry="0" style="fill: rgb(0, 0, 0);"><g id="shape-6f61dc49-c359-80cf-8002-70255d3fd3b5"><g class="fills" id="fills-6f61dc49-c359-80cf-8002-70255d3fd3b5"><path rx="0" ry="0" d="M94.971,0.000L94.971,40.836C50.910,44.198,12.297,75.991,2.383,121.325C-9.717,176.661,25.455,231.522,80.791,243.623C85.530,244.659,90.266,245.340,92.618,245.415L110.500,245.490L110.500,204.693C154.562,201.331,193.174,169.538,203.088,124.204C215.189,68.867,180.018,14.007,124.681,1.906C119.942,0.870,115.206,0.188,112.853,0.094ZM94.971,55.850L94.971,82.565C70.052,85.792,48.606,104.297,42.943,130.194C35.740,163.130,56.725,195.861,89.661,203.063C91.433,203.451,93.204,203.752,94.971,203.979L94.971,230.662C91.328,230.331,87.664,229.771,83.996,228.969C36.579,218.600,6.668,171.946,17.037,124.529C25.451,86.054,57.754,59.106,94.971,55.850ZZM110.500,14.867C114.144,15.198,117.808,15.757,121.477,16.559C168.894,26.928,198.803,73.582,188.434,120.999C180.020,159.475,147.717,186.423,110.500,189.679L110.500,162.963C135.419,159.736,156.865,141.232,162.529,115.334C169.731,82.398,148.748,49.667,115.812,42.465C114.039,42.077,112.268,41.777,110.500,41.550ZM94.971,97.686L94.971,188.818C94.270,188.698,93.568,188.564,92.865,188.410C67.848,182.939,52.125,158.415,57.596,133.398C61.756,114.374,76.936,100.728,94.971,97.686ZZM110.500,56.710C111.202,56.831,111.905,56.965,112.608,57.119C137.624,62.589,153.345,87.113,147.875,112.130C143.714,131.155,128.535,144.802,110.500,147.843Z" style="color: rgb(0, 0, 0); fill: rgb(0, 0, 0);"/></g></g></g></g></g></svg>